<?xml version="1.0" encoding="utf-8"?>
<!-- Generator: Adobe Illustrator 28.3.0, SVG Export Plug-In . SVG Version: 6.00 Build 0)  -->
<svg version="1.1" id="Layer_1" xmlns="http://www.w3.org/2000/svg" xmlns:xlink="http://www.w3.org/1999/xlink" x="0px" y="0px"
	 viewBox="0 0 1080 1080" style="enable-background:new 0 0 1080 1080;" xml:space="preserve">
<style type="text/css">
	.st0{clip-path:url(#SVGID_00000149358305747747616040000012647368505175175351_);}
	.st1{fill:#FFFFFF; stroke:#000000; stroke-width:2; stroke-linejoin:round;}
</style>
<g>
	<g>
		<g>
			<g>
				<defs>
					<path id="SVGID_1_" d="M540,701.88L540,701.88c-131.13,0-237.43-106.3-237.43-237.42v-95.49
						c0-131.13,106.3-237.42,237.42-237.42h0c131.13,0,237.42,106.3,237.42,237.42v95.49C777.43,595.59,671.13,701.88,540,701.88z"/>
				</defs>
				<use xlink:href="#SVGID_1_"  style="overflow:visible;fill:#D8A877;"/>
				<clipPath id="SVGID_00000060719900879530805050000009832063055342542238_">
					<use xlink:href="#SVGID_1_"  style="overflow:visible;"/>
				</clipPath>
				<g style="clip-path:url(#SVGID_00000060719900879530805050000009832063055342542238_);">
					<path class="st1" d="M750.94,596.65c0.39-3.72,0.3-7.49,0.64-11.23c0.31-3.53,0.21-7.1,1.39-10.55
						c2.26-6.65,4.53-13.3,6.39-20.07c4.95-17.99,9.28-36.09,8.87-54.98c-0.04-1.57-0.37-2.69-1.53-3.81
						c-7.72-7.41-15.45-14.83-23.03-22.39c-18.32-18.26-37.09-36.09-52.77-56.87c-5.09-6.75-10.41-13.33-14.41-20.85
						c-0.67-1.27-1.34-2.52-1.37-4.08c-0.14-7.5-0.4-14.99-0.6-22.49c-0.28-10.59-1.85-20.92-6.11-30.7
						c-5.46-12.55-11.74-24.67-18.66-36.46c-0.65-1.11-1.21-2.2-1.42-3.5c-0.72-4.46-2.32-8.62-4.34-12.62
						c-9.96-19.79-21.36-38.74-32.58-57.8c-1.04-1.77-1.44-3.15-0.42-5.22c2.37-4.82,0.92-10.3-3.31-13.08
						c-1.42-0.94-1.76-1.63-1.36-3.37c2.07-9.16-3.52-15.21-12.75-14c-0.71,0.1-1.44,0.13-2.15,0.23c-0.79,0.1-1.28-0.19-1.83-0.83
						c-4.6-5.39-10.21-9.56-16.3-12.97c-22.97-12.84-47.01-14.24-71.6-5.8c-18.09,6.21-32.57,17.5-42.62,34.1
						c-1.91,3.16-3.7,4.88-7.43,5.31c-6.03,0.69-8.9,4.62-8.79,10.76c0.04,2.14,0.54,4.16,1.5,6.06c0.43,0.84,0.55,1.56,0,2.52
						c-3.19,5.58-2.92,9.43,1.02,14.26c0.87,1.07,0.99,1.9,0.53,3.18c-4.09,11.32-7.36,22.9-10.35,34.55
						c-3.22,12.56-4.94,25.22-2.97,38.26c1.36,9.04,3.19,17.98,4.64,27c1.08,6.73,2.95,12.98-0.65,20.23
						c-7.63,15.36-8.67,32.1-5.84,48.99c0.42,2.48-0.38,3.31-2.39,4.13c-7.02,2.87-14,5.82-20.93,8.87
						c-9.76,4.3-19.61,8.53-27.28,16.35c-2.12,2.16-3.91,2.55-6.78,1.6c-6.32-2.11-12.45-1.52-17.91,2.82
						c-3.05,2.44-5.28,5.51-6.62,9.17c-1.1,2.99-2.68,5.21-5.89,6.17c-2.07,0.62-3.8,2.04-5.36,3.61c-3.83,3.83-4.97,8.54-4.61,13.8
						c0.12,1.8,0.36,3.62-1.16,5.12c-3.75,3.7-5.24,8.32-5.67,13.54c-0.81,9.95-3.27,19.17-11.93,25.41
						c-1.45,1.04-2.67,2.48-3.79,3.9c-7.87,9.96-16.08,19.63-24.09,29.46c-15.49,19.02-19.75,40.88-12.13,64.57
						c6.41,19.93,22.46,31.24,42.2,29.9c12.85-0.87,24.1-6.35,34.79-13.26c1.75-1.13,1.33-1.85,0.29-3.09
						c-10.59-12.57-14.6-26.83-10.57-43.09c0.32-1.27,0.21-1.71-1.2-1.93c-9.08-1.48-16.7-5.93-23.39-12.15
						c-0.24,0.23-0.47,0.47-0.71,0.7c-0.13,1.11-0.67,0.89-1.42,0.56c-0.5-0.23-1.4-0.48-0.77,0.72c0.48,0.27,1.02,0.75,0.53,1.18
						c-0.46,0.39-0.77-0.34-1.03-0.74c-0.72,0.29-1.06-0.44-1.7-0.44c-0.86,0.47,2.25,2.5-0.96,2.06c-0.51-0.07-0.19,0.47-0.04,0.74
						c0.46,0.77,0.9,1.54,1.34,2.31c0.37,0.31,1.04,0.67,0.7,1.11c-0.38,0.5-0.9,0.06-1.2-0.42c-0.99-0.34-1.26-2.17-2.82-1.41
						c1.44,1.71,2.4,3.64,3.34,5.94c-1.87-0.93-2.3-3.14-4.58-3.48c1.41,2.55,2.67,4.84,3.93,7.13c0.52,0.18,0.71,0.61,0.35,0.97
						c-0.3,0.28-0.53-0.22-0.75-0.45c-4.43-2.66-7.59-6.42-9.33-11.33c-2.62-7.38-2.35-14.91-0.77-22.43
						c2.64-12.51,10.27-21.94,18.79-30.79c0.22-0.23,0.54-0.5,0.99-0.02c-0.07,0.27-0.1,0.63-0.23,0.94
						c-2.11,4.94-4.28,9.86-5.54,15.12c-2.01,8.45-2.77,16.87,1.97,24.7c5.57,9.2,14.28,13.87,24.26,16.55
						c1.34,0.37,1.71-0.36,2.15-1.36c3.42-7.71,8.29-14.37,14.6-19.83c2.14-1.85,1.72-2.71,0.04-4.48
						c-5.44-5.73-8.83-12.54-9.91-20.88c2.43,1.88,3.83,4.08,4.93,6.48c2,4.33,4.42,8.36,7.76,11.78c1.62,1.67,4.71,3.32,4.42,5.06
						c-0.31,1.96-3.1,3.54-4.87,5.23c-8.94,8.53-15.23,18.41-16.15,31.25c-0.02,0.26,0.02,0.67,0.18,0.72
						c1.57,0.45,11.31-34.86,24.18-56.37c4.53-7.58,6.8-11.37,10.32-14.76c3.96-3.82,6.83-5.15,8.73-9.65
						c1.89-4.49,0.16-5.83,2.38-10.05c1.95-3.7,3.68-3.43,7.54-8.85c2.54-3.57,1.86-3.78,3.96-6.46c3.87-4.92,5.91-3.85,9.14-8.06
						c1.12-1.46,4.49-5.9,4.89-11.12c0.09-1.15,0.29-3.43,1.65-5.84c0.38-0.67,0.93-1.32,1.81-2.01c8.29-6.5,20.54,0.35,26.77-6.93
						c2.13-2.49,2.86-5.84,2.91-6.02c1.82-6.7-2.01-12.35-8.82-13.14c-4.24-0.49-8.52-0.31-12.67,0.46
						c-10.36,1.93-20.68,4.15-30.98,6.4c-2.76,0.61-4.94-0.5-7.69-1.34c4.41-4.07,9.25-6.48,14.16-8.74
						c26.24-12.07,53.07-22.77,79.64-34.06c1.43-0.61,2.92-1.08,4.46-1.65c0.13,1.83,0.16,3.29,0.34,4.73
						c0.86,6.73,4.91,11.68,9.17,16.42c6.63,7.38,15,12.13,24.08,15.69c1.3,1,3.14,0.47,4.4,1.6c0.36,0.01,0.72,0.01,1.08,0.02
						c4.21,0.05,4.42,0.23,4.45,4.33c0.08,11.6,0.32,59.91,0.11,71.51c-0.08,4.75,0.75,8.77,4.55,11.88c0.45-0.67,0.26-1.5,0.29-2.28
						c0.53-14.06,0.27-64.85,0.36-78.91c0.03-5.39-0.01-5.39,5.24-5.69c1.15,0.52,2.27,0.31,3.38-0.15c1.8-1.04,3.85-0.48,5.9-1.16
						c0.22,11.58,0.29,22.96,1.35,34.31c0.43-0.88,0.58-1.75,0.69-2.63c1.09-9.73,1.78-19.48,2.17-29.25
						c0.1-2.49,0.77-3.52,3.21-4.27c13.44-4.14,25.02-11.17,33.23-23.09c0.84-1.22,1.61-1.57,3.12-1.21
						c19.71,4.81,39.21,10.35,58.65,16.17c3.28,0.98,6.55,1.94,9.83,2.91c-17.35-8.13-34.02-17.33-50.08-27.9
						c1.1-0.45,1.9-0.01,2.74,0.34c5.99,2.5,11.99,4.96,17.98,7.46c16.9,7.05,33.74,14.26,50.27,22.16c1.36,0.65,1.81,1,0.79,2.47
						c-1.73,2.47-2.71,5.31-3.57,8.22c-2.01,6.75-3.49,13.6-4.71,20.52c-1.35,7.66-2.53,15.35-3.78,23.09
						c1.15,0.1,1.16-0.72,1.39-1.23c0.96-2.27,1.84-4.57,2.82-6.83c4-9.29,7.92-18.62,13.8-26.93c1.36-1.93,2.95-3.63,5.5-4.82
						c-1.97,7.82-3.87,15.32-5.76,22.82c0.29,0.15,0.57,0.31,0.86,0.47c2.48-5.03,5.19-9.91,8.69-14.88
						c2.58,11.26,4.77,21.97,6.5,32.77c2.71,16.94,2.4,33.87-0.26,50.79c-0.12,0.7-1.27,1.64-0.25,2.09c1.1,0.48,1.26-1,1.76-1.66
						c3.53-4.67,5.82-10.07,8.7-15.13c0.78-1.37,1.39-2.86,2.67-4.05c5.12,22.93-3.87,48.38-18.7,61.42c0.91,0.47,1.68,0.01,2.5-0.31
						c4.11-1.6,8.24-3.19,12.38-4.74c5.75-2.15,11.45-4.46,17.59-5.18c3.41-0.4,4.2,0.6,3.15,3.86c-1.91,5.94-5.51,10.85-9.59,15.4
						c-3.4,3.81-7.55,6.76-11.87,9.91c16.49,1.64,31.74,12.51,31.5,22.21c-0.17-0.06-0.37-0.07-0.48-0.18
						c-13.1-12.73-28.84-18.56-46.86-18.3c-2.15,0.03-3.53-1.16-5.02-2.28c-1.01-0.75-0.28-2.23-1.2-3.21
						c-1.54-1.63-3.4-2.71-5.33-3.68c-1.93-0.98-3.09-2.38-3.31-4.61c-0.45-4.54-1.17-9.06-0.95-13.66
						c-0.52-4.41-0.66-8.92-1.66-13.22c-1.26-5.42-0.19-9.68,3.47-13.87c4.29-4.9,6.73-11.12,10.21-16.61
						c4.07-12.7,6.43-25.57,4.19-38.91c-0.93,18.9-11.17,32.55-24.16,45.28c-0.25-2.27-0.66-3.92-0.57-5.53
						c0.23-4.27-1.99-8.33-1.03-12.65c-0.37,0.1-0.74,0.2-1.1,0.31c-1.03,19.21-0.74,38.46-1.44,58.37
						c-3.4-4.26-7.04-7.27-10.18-10.76c-5.46-6.07-12-7.22-19.47-5.3c-4.45,1.13-8.76,2.83-13.31,3.62c-0.87,0.15-1.6,0.35-2.23-0.35
						c3.93-2.29,8.17-3.79,12.36-5.43c2.69-1.05,5.29-2.38,7.54-4.24c4.91-4.08,7.38-9.18,5.84-15.71
						c-1.27-5.36-6.32-9.56-12.4-10.35c-4.35-0.57-8.34,0.64-12.31,3.41c0-1.71-0.09-2.95,0.02-4.18c0.17-1.8-0.39-2.68-2.32-2.72
						c-2.16-0.04-4.3-0.45-6.46-0.58c-17.03-0.95-34.08-0.69-51.12-0.34c-4.86,0.1-9.72,0.42-14.54,1.32
						c-1.21,0.23-1.68,0.61-1.67,1.86c0.04,10.42-0.12,20.85,2.32,31.09c1.18,4.95,3.04,9.62,5.51,14.12l0.08,0.16
						c0.17,0.3,0.34,0.6,0.51,0.9c-0.01,0-0.02,0-0.04,0.01l3.94,7.61c0.58,0.42,0.35,1.11,0.05,1.84c-0.66,1.68-1.3,3.37-1.94,5.06
						c0.06,1.24-0.22,1.87-1.3,1.6c0,0,0,0-0.01,0c-1.45,0.59-3.17,2.77-4.39,4.56c-0.06,0.25-0.17,0.52-0.32,0.84
						c-1.95,3.95-1.16,7.12,2.16,10.01c3.49,3.04,7.26,5.72,10.99,8.42c12.34,8.96,26.16,15.42,38.88,23.76
						c2.33,1.53,5.11,2.25,7.84,2.93c6.84,1.7,13.79,1.41,20.73,1.1c1.73-0.08,2.46,0.17,2.61,2.22c0.42,5.56,1.4,11.05,3.41,16.3
						c1.05,2.76,2.62,5,5.41,6.14c8.47,3.48,16.23,8.33,24.26,12.67c17.82,9.65,36.54,13,56.5,8.83
						c19.45-4.07,30.29-15.62,32.71-35.57c1.35-11.17-0.67-22.03-3.29-32.81C753.18,619.62,749.7,608.5,750.94,596.65z
						 M312.21,588.04c0.14-0.08,0.36-0.27,0.42-0.23c0.18,0.14,0.3,0.35,0.44,0.53c-0.14,0.2-0.23,0.33-0.32,0.46
						C312.57,588.55,312.39,588.29,312.21,588.04z M298.89,602.09c-1.52-1.24-2.83-2.31-4.51-3.69c-0.4,3.75,1.26,6.62,1.91,10.11
						c-1.06-1.41-1.96-2.61-2.87-3.81c-0.27,0.22-0.54,0.43-0.82,0.65c-0.66,2.87,0.08,5.68,0.64,8.47c0.58,2.93,1.49,5.74,3.36,8.17
						c0.56,0.73,1.3,1.56,1.15,2.68l0.12,0.01l-0.08,0.03c-3.54-2-6.43-4.77-8.83-8.34c-1.15,4.26,1.73,7.46,1.93,11.55
						c-1.9-1.35-3.33-2.67-4.34-4.45c-6.42-8.81-8.22-18.76-6.5-29.34c2.09-12.86,8.7-23.42,17.25-32.87
						c0.16-0.18,0.45-0.22,1.45-0.68c-4.42,13.04-3.8,25.66-0.64,38.28C298.67,599.69,298.94,600.62,298.89,602.09z M409.81,468.43
						 M420.76,454.08c5.82-2.01,11.84-1.93,17.87-1.73c1.67,0.05,3.23,0.7,3.82,2.5c0.56,1.7-0.04,3.25-1.18,4.53
						c-2.1,2.36-4.96,3.24-7.9,3.76c-3.11,0.55-6.26,0.72-9.38,0.01c-3.37-0.34-6.6-1.21-8.99-3.78c-1.06-1.13-2.22-0.89-3.41-1.09
						c-0.94-0.16-1.84-0.49-2.81-1.15C412.92,456.55,416.58,454.34,420.76,454.08z M398.76,465.63c3,1.35,6.19,2.69,7.62,6.15
						c4.45,6.63,2.41,18.2-3.9,21.66c-0.32-0.76-0.66-1.49-0.93-2.25c-1.43-4.11-4.14-7-8.06-8.72c-8.83-3.89-17.66-7.79-26.51-11.64
						c-1.56-0.68-3.2-1.18-4.8-1.76c-1.04-0.16-1.71-0.02-0.84,1.19c1.23,1.7,2.77,3.1,4.55,4.2c6.61,4.11,13.89,6.84,20.79,10.33
						c2.48,1.25,5.12,2.37,6.19,5.34c2.04,5.07,2.25,10.3,0.49,15.4c-1.19,3.42-2.85,3.63-5.84,1.7c-4.81-3.1-10.31-4.72-15.45-7.12
						c-6.61-3.1-13.25-6.13-19.9-9.15c-1.54-0.7-3.08-1.52-4.86-1.43c2.37,3.94,5.85,6.67,9.82,8.72c7.21,3.7,14.52,7.22,21.77,10.85
						c2.23,1.12,4.53,2.25,4.85,5.23c1.3,3.58-0.43,10.05-3.25,12.21c-1.41,1.08-3.02,1.42-4.6,0.75
						c-10.6-4.53-21.53-8.31-31.72-13.8c-0.92-0.5-1.91-1.05-2.48-2.04c-1.31,0.21-3.22-0.12-3.64,1.14
						c-0.47,1.38,1.19,2.44,2.18,3.43c3.66,3.69,8.44,5.44,12.98,7.58c4.8,2.25,9.69,4.29,14.52,6.47c0.97,0.44,1.84,1.09,2.76,1.65
						c1.03,0.51,1.78,1.32,1.91,2.47c0.6,5.35-5.18,11.94-10.65,10.54c-7.87-2.02-15.37-5.21-23.27-7.1c-1.6-0.38-3.15-1.22-4.88-0.8
						c2.32,2.96,3.73,6.3,4.28,10.07c0.3,2.07-0.14,3.15-2.42,2.91c-1.06-0.1-2.14-0.01-3.48,0.43c1.91,1,3.82,2,5.73,2.98
						c1.85,0.95,4.55,1.92,4.28,3.94c-0.17,1.27-3.33,0.55-5.16,0.7c-0.71,0.06-1.44-0.01-2.16-0.05c-8.45-0.53-7.28,0.59-9.01-7.9
						c-1.28-6.29-1-12.73-0.12-19.11c0.06-0.45,0.07-0.91,0.6-1.11c-0.07-4.39,1.27-8.47,2.87-12.45c1.78-4.44,3.16-8.92,3.08-13.79
						c-0.07-3.54,1.21-6.64,3.83-9.05c2.37-2.19,3.47-4.8,3.13-8.06c-0.12-1.08,0.01-2.2-0.02-3.29c-0.12-5.15,2.04-8.89,6.89-10.6
						c4.63-1.64,7.28-4.72,8.95-9.41c2.99-8.39,8.86-10.97,17.24-8.08C381.17,458.05,390.04,461.67,398.76,465.63z M673.79,411.63
						c0.51-0.83,0.97-1.68,1.59-2.76c1.7,2.71,4.01,4.73,4.94,7.81c-2.06-1.16-4.13-2.31-6.19-3.47
						C673.41,412.82,673.37,412.3,673.79,411.63z M663.82,358.88c0.82,0.5,1.21,1.06,1.38,1.73c-0.11,0.3-0.22,0.29-0.43,0.15
						C664.16,360.35,663.08,360.27,663.82,358.88z M663.57,386.09c-1.61-1.17-3.63-1.71-1.3-4.35
						C662.74,383.32,663.1,384.51,663.57,386.09z M664.58,355.1c0.14,0.86,0.58,2-0.35,2.52c-1.02,0.56-1.13-0.86-1.77-1.25
						c-0.38-0.23-0.7-0.56-1.04-0.86c-3.76-3.32-3.68-4.79,0.45-8.36C662.99,349.72,664.14,352.29,664.58,355.1z M658.01,338.07
						c1.16,2.52,2.3,4.96,3.77,8.15c-2.33-1.41-3.96-2.42-5.62-3.39c-0.75-0.43-0.71-0.98-0.26-1.55
						C656.67,340.27,657.34,339.17,658.01,338.07z"/>
				</g>
				<rect x="684.57" y="751.69" transform="matrix(0.7071 -0.7071 0.7071 0.7071 -396.4463 560.5314)" class="st1" width="14.25" height="14.25"/>
				<polygon class="st1" points="701.77,749.33 691.7,759.4 681.62,749.33 691.7,739.26 694.66,742.22 				"/>
				
					<rect x="732.45" y="836.89" transform="matrix(0.7071 -0.7071 0.7071 0.7071 -380.1949 770.1615)" class="st1" width="14.24" height="14.24"/>
				
					<rect x="752.71" y="836.89" transform="matrix(0.7073 -0.7069 0.7069 0.7073 -374.2431 784.1779)" class="st1" width="14.25" height="14.25"/>
				<path class="st1" d="M835.14,788.38c-2.33-3.99-5.49-7.15-9.48-9.48c-3.99-2.33-8.35-3.49-13.1-3.49h-15.88l3.61-4.74
					l25.3-33.18h-19.67l-25.3,33.18l-3.61,4.74v14.22h35.55c3.23,0,6.02,1.16,8.35,3.49c2.33,2.33,3.49,5.11,3.49,8.35v11.85h-60.44
					c-1.98,0-3.66-0.69-5.04-2.08c-1.38-1.38-2.07-3.06-2.07-5.03V775.4h-14.22v30.81c0,1.97-0.69,3.65-2.08,5.03
					c-1.38,1.39-3.06,2.08-5.03,2.08h-17.78v-21.33c0-4.74-1.17-9.1-3.49-13.1c-0.73-1.25-1.54-2.41-2.43-3.49
					c-1.48-1.8-3.19-3.39-5.12-4.74c-0.62-0.44-1.26-0.86-1.93-1.25c-3.99-2.32-8.35-3.49-13.1-3.49c-4.74,0-9.11,1.17-13.1,3.49
					c-0.67,0.39-1.31,0.81-1.93,1.25c-1.93,1.35-3.64,2.94-5.13,4.74c-0.89,1.08-1.7,2.25-2.43,3.49c-2.33,3.99-3.49,8.35-3.49,13.1
					v15.41l7.23,5.92H644.3c-3.24,0-6.02-1.19-8.35-3.55c-2.33-2.37-3.49-5.17-3.49-8.41v-21.21h-14.22v21.21
					c0,4.74,1.16,9.12,3.49,13.15c2.33,4.03,5.49,7.21,9.48,9.54c3.99,2.33,8.35,3.49,13.1,3.49h91.25c5.45,0,10.19-1.81,14.22-5.45
					c4.03,3.64,8.77,5.45,14.22,5.45h74.66v-26.07C838.64,796.73,837.47,792.37,835.14,788.38z M703.55,813.32h-9.24l-14.46-13.04
					v-8.29c0-3.24,1.16-6.02,3.49-8.35c2.33-2.33,5.11-3.49,8.35-3.49c3.24,0,6.02,1.16,8.35,3.49c2.33,2.33,3.49,5.11,3.49,8.35
					V813.32z"/>
			</g>
			<path class="st1" d="M535.27,742.22v71.1h-9.48c-3.24,0-6.02-1.16-8.35-3.49c-2.33-2.33-3.49-5.11-3.49-8.35v-0.12
				c0-4.74-1.16-9.1-3.49-13.1c-2.33-3.99-5.49-7.15-9.48-9.48c-3.26-1.9-6.77-3.03-10.53-3.38h-33.37v-4.74h-14.22v42.66h-17.78
				c-1.98,0-3.66-0.69-5.04-2.08c-1.38-1.38-2.07-3.06-2.07-5.03V775.4h-14.22v30.81c0,1.97-0.69,3.65-2.08,5.03
				c-1.38,1.39-3.06,2.08-5.03,2.08h-17.9v-71.1h-14.22v85.32h32.12c5.45,0,10.19-1.81,14.22-5.45c4.03,3.64,8.77,5.45,14.22,5.45
				h62.8c3.72,0,7.21-0.71,10.49-2.13c3.28-1.42,6.1-3.43,8.47-6.04c2.37,2.61,5.19,4.62,8.47,6.04c3.28,1.42,6.77,2.13,10.48,2.13
				h23.7v-85.32H535.27z M496.22,809.77c-2.33,2.37-5.11,3.55-8.35,3.55h-30.81v-23.7l30.81-0.12c3.24,0,6.02,1.16,8.35,3.49
				c2.33,2.33,3.5,5.11,3.5,8.35C499.72,804.6,498.55,807.4,496.22,809.77z"/>
			<rect x="563.71" y="742.22" class="st1" width="14.22" height="85.32"/>
		</g>
		<g>
			<g>
				<polygon class="st1" points="257.6,904.56 277.21,948.45 263.53,948.45 248.82,915.5 240.73,925.65 240.73,948.45 
					227.04,948.45 227.04,880.05 240.73,880.05 240.73,908.55 263.53,880.05 277.21,880.05 				"/>
				<polygon class="st1" points="300.01,893.73 300.01,907.41 322.81,907.41 322.81,921.09 300.01,921.09 300.01,934.77 
					331.93,934.77 331.93,948.45 286.33,948.45 286.33,880.05 331.93,880.05 331.93,893.73 				"/>
				<polygon class="st1" points="366.14,893.73 366.14,934.77 379.82,934.77 379.82,948.45 338.78,948.45 338.78,934.77 
					352.46,934.77 352.46,893.73 338.78,893.73 338.78,880.05 379.82,880.05 379.82,893.73 				"/>
				<polygon class="st1" points="436.82,880.05 436.82,893.73 404.9,893.73 404.9,907.41 427.7,907.41 427.7,921.09 404.9,921.09 
					404.9,948.45 391.22,948.45 391.22,880.05 				"/>
				<path class="st1" d="M500.67,880.05h-13.68l-22.8,68.4h13.68l6.04-18.24h19.84l6.04,18.24h13.68L500.67,880.05z M488.47,916.53
					l5.36-15.96l5.36,15.96H488.47z"/>
				<polygon class="st1" points="577.05,934.77 577.05,948.45 531.45,948.45 531.45,880.05 545.13,880.05 545.13,934.77 				"/>
				<path class="st1" d="M632.97,892.53c-2.24-3.84-5.28-6.88-9.12-9.12c-3.84-2.24-8.04-3.36-12.6-3.36h-25.08v68.4h25.08
					c4.56,0,8.76-1.12,12.6-3.36c3.84-2.24,6.88-5.28,9.12-9.12c2.24-3.84,3.37-8.04,3.37-12.6v-18.24
					C636.34,900.57,635.22,896.37,632.97,892.53z M622.66,923.37c0,3.12-1.12,5.8-3.37,8.04c-2.24,2.24-4.92,3.36-8.04,3.36h-11.4
					v-41.04h11.4c3.11,0,5.79,1.12,8.04,3.36c2.24,2.24,3.37,4.92,3.37,8.04V923.37z"/>
				<polygon class="st1" points="670.54,893.73 670.54,934.77 684.22,934.77 684.22,948.45 643.18,948.45 643.18,934.77 
					656.86,934.77 656.86,893.73 643.18,893.73 643.18,880.05 684.22,880.05 684.22,893.73 				"/>
				<path class="st1" d="M724.13,880.05h-13.68l-22.8,68.4h13.68l6.04-18.24h19.84l6.04,18.24h13.68L724.13,880.05z M711.93,916.53
					l5.36-15.96l5.36,15.96H711.93z"/>
				<path class="st1" d="M830.15,880.05h-13.68l-22.8,68.4h13.68l6.04-18.24h19.84l6.04,18.24h13.68L830.15,880.05z M817.96,916.53
					l5.36-15.96l5.36,15.96H817.96z"/>
			</g>
			<polygon class="st1" points="800.51,880.05 800.51,893.73 768.59,893.73 768.59,907.41 791.39,907.41 791.39,921.09 
				768.59,921.09 768.59,948.45 754.91,948.45 754.91,880.05 			"/>
		</g>
	</g>
</g>
</svg>
