<?xml version="1.0" encoding="utf-8"?>
<svg version="1.1" id="Layer_1" xmlns="http://www.w3.org/2000/svg" xmlns:xlink="http://www.w3.org/1999/xlink" x="0px" y="0px"
	 viewBox="0 0 1080 1080" style="enable-background:new 0 0 1080 1080;" xml:space="preserve">
<style type="text/css">
	.st1{fill:#1B224A;}
	.st-white-text{fill:#FFFFFF; stroke:#000000; stroke-width:2px; stroke-linejoin:round;}
</style>
<g>
	<g>
		<g>
			<defs>
				<path id="SVGID_1_" d="M540,701.88L540,701.88c-131.13,0-237.43-106.3-237.43-237.42v-95.49
					c0-131.13,106.3-237.42,237.42-237.42h0c131.13,0,237.42,106.3,237.42,237.42v95.49C777.43,595.59,671.13,701.88,540,701.88z"/>
			</defs>
			<use xlink:href="#SVGID_1_"  style="overflow:visible;fill:#D8A877;"/>
			<clipPath id="SVGID_clip_path">
				<use xlink:href="#SVGID_1_"  style="overflow:visible;"/>
			</clipPath>
			<g style="clip-path:url(#SVGID_clip_path);">
				<path class="st1" d="M750.94,596.65c0.39-3.72,0.3-7.49,0.64-11.23c0.31-3.53,0.21-7.1,1.39-10.55
					c2.26-6.65,4.53-13.3,6.39-20.07c4.95-17.99,9.28-36.09,8.87-54.98c-0.04-1.57-0.37-2.69-1.53-3.81
					c-7.72-7.41-15.45-14.83-23.03-22.39c-18.32-18.26-37.09-36.09-52.77-56.87c-5.09-6.75-10.41-13.33-14.41-20.85
					c-0.67-1.27-1.34-2.52-1.37-4.08c-0.14-7.5-0.4-14.99-0.6-22.49c-0.28-10.59-1.85-20.92-6.11-30.7
					c-5.46-12.55-11.74-24.67-18.66-36.46c-0.65-1.11-1.21-2.2-1.42-3.5c-0.72-4.46-2.32-8.62-4.34-12.62
					c-9.96-19.79-21.36-38.74-32.58-57.8c-1.04-1.77-1.44-3.15-0.42-5.22c2.37-4.82,0.92-10.3-3.31-13.08
					c-1.42-0.94-1.76-1.63-1.36-3.37c2.07-9.16-3.52-15.21-12.75-14c-0.71,0.1-1.44,0.13-2.15,0.23c-0.79,0.1-1.28-0.19-1.83-0.83
					c-4.6-5.39-10.21-9.56-16.3-12.97c-22.97-12.84-47.01-14.24-71.6-5.8c-18.09,6.21-32.57,17.5-42.62,34.1
					c-1.91,3.16-3.7,4.88-7.43,5.31c-6.03,0.69-8.9,4.62-8.79,10.76c0.04,2.14,0.54,4.16,1.5,6.06c0.43,0.84,0.55,1.56,0,2.52
					c-3.19,5.58-2.92,9.43,1.02,14.26c0.87,1.07,0.99,1.9,0.53,3.18c-4.09,11.32-7.36,22.9-10.35,34.55
					c-3.22,12.56-4.94,25.22-2.97,38.26c1.36,9.04,3.19,17.98,4.64,27c1.08,6.73,2.95,12.98-0.65,20.23
					c-7.63,15.36-8.67,32.1-5.84,48.99c0.42,2.48-0.38,3.31-2.39,4.13c-7.02,2.87-14,5.82-20.93,8.87
					c-9.76,4.3-19.61,8.53-27.28,16.35c-2.12,2.16-3.91,2.55-6.78,1.6c-6.32-2.11-12.45-1.52-17.91,2.82
					c-3.05,2.44-5.28,5.51-6.62,9.17c-1.1,2.99-2.68,5.21-5.89,6.17c-2.07,0.62-3.8,2.04-5.36,3.61c-3.83,3.83-4.97,8.54-4.61,13.8
					c0.12,1.8,0.36,3.62-1.16,5.12c-3.75,3.7-5.24,8.32-5.67,13.54c-0.81,9.95-3.27,19.17-11.93,25.41
					c-1.45,1.04-2.67,2.48-3.79,3.9c-7.87,9.96-16.08,19.63-24.09,29.46c-15.49,19.02-19.75,40.88-12.13,64.57
					c6.41,19.93,22.46,31.24,42.2,29.9c12.85-0.87,24.1-6.35,34.79-13.26c1.75-1.13,1.33-1.85,0.29-3.09
					c-10.59-12.57-14.6-26.83-10.57-43.09c0.32-1.27,0.21-1.71-1.2-1.93c-9.08-1.48-16.7-5.93-23.39-12.15
					c-0.24,0.23-0.47,0.47-0.71,0.7c-0.13,1.11-0.67,0.89-1.42,0.56c-0.5-0.23-1.4-0.48-0.77,0.72c0.48,0.27,1.02,0.75,0.53,1.18
					c-0.46,0.39-0.77-0.34-1.03-0.74c-0.72,0.29-1.06-0.96-1.7-0.44c-0.86,0.47,2.25,2.5-0.96,2.06c-0.51-0.07-0.19,0.47-0.04,0.74
					c0.46,0.77,0.9,1.54,1.34,2.31c0.37,0.31,1.04,0.67,0.7,1.11c-0.38,0.5-0.9,0.06-1.2-0.42c-0.99-0.34-1.26-2.17-2.82-1.41
					c1.44,1.71,2.4,3.64,3.34,5.94c-1.87-0.93-2.3-3.14-4.58-3.48c1.41,2.55,2.67,4.84,3.93,7.13c0.52,0.18,0.71,0.61,0.35,0.97
					c-0.3,0.28-0.53-0.22-0.75-0.45c-4.43-2.66-7.59-6.42-9.33-11.33c-2.62-7.38-2.35-14.91-0.77-22.43
					c2.64-12.51,10.27-21.94,18.79-30.79c0.22-0.23,0.54-0.5,0.99-0.02c-0.07,0.27-0.1,0.63-0.23,0.94
					c-2.11,4.94-4.28,9.86-5.54,15.12c-2.01,8.45-2.77,16.87,1.97,24.7c5.57,9.2,14.28,13.87,24.26,16.55
					c1.34,0.37,1.71-0.36,2.15-1.36c3.42-7.71,8.29-14.37,14.6-19.83c2.14-1.85,1.72-2.71,0.04-4.48
					c-5.44-5.73-8.83-12.54-9.91-20.88c2.43,1.88,3.83,4.08,4.93,6.48c2,4.33,4.42,8.36,7.76,11.78c1.62,1.67,4.71,3.32,4.42,5.06
					c-0.31,1.96-3.1,3.54-4.87,5.23c-8.94,8.53-15.23,18.41-16.15,31.25c-0.02,0.26,0.02,0.67,0.18,0.72
					c1.57,0.45,11.31-34.86,24.18-56.37c4.53-7.58,6.8-11.37,10.32-14.76c3.96-3.82,6.83-5.15,8.73-9.65"/>
			</g>
			<g>
				<rect x="684.57" y="739.26" transform="matrix(0.7071 -0.7071 0.7071 0.7071 -396.4463 560.5314)" class="st-white-text" width="14.25" height="14.25"/>
				<polygon class="st-white-text" points="701.77,749.33 691.7,759.4 681.62,749.33 691.7,739.26 694.66,742.22"/>
				<rect x="732.45" y="836.89" transform="matrix(0.7071 -0.7071 0.7071 0.7071 -380.1949 770.1615)" class="st-white-text" width="14.24" height="14.24"/>
				<rect x="752.71" y="836.89" transform="matrix(0.7073 -0.7069 0.7069 0.7073 -374.2431 784.1779)" class="st-white-text" width="14.25" height="14.25"/>
				<path class="st-white-text" d="M835.14,788.38c-2.33-3.99-5.49-7.15-9.48-9.48c-3.99-2.33-8.35-3.49-13.1-3.49h-15.88l3.61-4.74
					l25.3-33.18h-19.67l-25.3,33.18l-3.61,4.74v14.22h35.55c3.23,0,6.02,1.16,8.35,3.49c2.33,2.33,3.49,5.11,3.49,8.35v11.85h-60.44
					c-1.98,0-3.66-0.69-5.04-2.08c-1.38-1.38-2.07-3.06-2.07-5.03V775.4h-14.22v30.81c0,1.97-0.69,3.65-2.08,5.03
					c-1.38,1.39-3.06,2.08-5.03,2.08h-17.78v-21.33c0-4.74-1.17-9.1-3.49-13.1c-0.73-1.25-1.54-2.41-2.43-3.49
					c-1.48-1.8-3.19-3.39-5.12-4.74c-0.62-0.44-1.26-0.86-1.93-1.25c-3.99-2.32-8.35-3.49-13.1-3.49c-4.74,0-9.11,1.17-13.1,3.49
					c-0.67,0.39-1.31,0.81-1.93,1.25c-1.93,1.35-3.64,2.94-5.13,4.74c-0.89,1.08-1.7,2.25-2.43,3.49c-2.33,3.99-3.49,8.35-3.49,13.1
					v15.41l7.23,5.92H644.3c-3.24,0-6.02-1.19-8.35-3.55c-2.33-2.37-3.49-5.17-3.49-8.41v-21.21h-14.22v21.21
					c0,4.74,1.16,9.12,3.49,13.15c2.33,4.03,5.49,7.21,9.48,9.54c3.99,2.33,8.35,3.49,13.1,3.49h91.25c5.45,0,10.19-1.81,14.22-5.45
					c4.03,3.64,8.77,5.45,14.22,5.45h74.66v-26.07C838.64,796.73,837.47,792.37,835.14,788.38z M703.55,813.32h-9.24l-14.46-13.04
					v-8.29c0-3.24,1.16-6.02,3.49-8.35c2.33-2.33,5.11-3.49,8.35-3.49c3.24,0,6.02,1.16,8.35,3.49c2.33,2.33,3.49,5.11,3.49,8.35
					V813.32z"/>
			</g>
			<path class="st-white-text" d="M535.27,742.22v71.1h-9.48c-3.24,0-6.02-1.16-8.35-3.49c-2.33-2.33-3.49-5.11-3.49-8.35v-0.12
				c0-4.74-1.16-9.1-3.49-13.1c-2.33-3.99-5.49-7.15-9.48-9.48c-3.26-1.9-6.77-3.03-10.53-3.38h-33.37v-4.74h-14.22v42.66h-17.78
				c-1.98,0-3.66-0.69-5.04-2.08c-1.38-1.38-2.07-3.06-2.07-5.03V775.4h-14.22v30.81c0,1.97-0.69,3.65-2.08,5.03
				c-1.38,1.39-3.06,2.08-5.03,2.08h-17.9v-71.1h-14.22v85.32h32.12c5.45,0,10.19-1.81,14.22-5.45c4.03,3.64,8.77,5.45,14.22,5.45
				h62.8c3.72,0,7.21-0.71,10.49-2.13c3.28-1.42,6.1-3.43,8.47-6.04c2.37,2.61,5.19,4.62,8.47,6.04c3.28,1.42,6.77,2.13,10.48,2.13
				h23.7v-85.32H535.27z M496.22,809.77c-2.33,2.37-5.11,3.55-8.35,3.55h-30.81v-23.7l30.81-0.12c3.24,0,6.02,1.16,8.35,3.49
				c2.33,2.33,3.5,5.11,3.5,8.35C499.72,804.6,498.55,807.4,496.22,809.77z"/>
			<rect x="563.71" y="742.22" class="st-white-text" width="14.22" height="85.32"/>
		</g>
		<g>
			<g>
				<polygon class="st-white-text" points="257.6,904.56 277.21,948.45 263.53,948.45 248.82,915.5 240.73,925.65 240.73,948.45 
					227.04,948.45 227.04,880.05 240.73,880.05 240.73,908.55 263.53,880.05 277.21,880.05 				"/>
				<polygon class="st-white-text" points="300.01,893.73 300.01,907.41 322.81,907.41 322.81,921.09 300.01,921.09 300.01,934.77 
					331.93,934.77 331.93,948.45 286.33,948.45 286.33,880.05 331.93,880.05 331.93,893.73 				"/>
				<polygon class="st-white-text" points="366.14,893.73 366.14,934.77 379.82,934.77 379.82,948.45 338.78,948.45 338.78,934.77 
					352.46,934.77 352.46,893.73 338.78,893.73 338.78,880.05 379.82,880.05 379.82,893.73 				"/>
				<polygon class="st-white-text" points="436.82,880.05 436.82,893.73 404.9,893.73 404.9,907.41 427.7,907.41 427.7,921.09 404.9,921.09 
					404.9,948.45 391.22,948.45 391.22,880.05 				"/>
				<path class="st-white-text" d="M500.67,880.05h-13.68l-22.8,68.4h13.68l6.04-18.24h19.84l6.04,18.24h13.68L500.67,880.05z M488.47,916.53
					l5.36-15.96l5.36,15.96H488.47z"/>
				<polygon class="st-white-text" points="577.05,934.77 577.05,948.45 531.45,948.45 531.45,880.05 545.13,880.05 545.13,934.77 				"/>
				<path class="st-white-text" d="M632.97,892.53c-2.24-3.84-5.28-6.88-9.12-9.12c-3.84-2.24-8.04-3.36-12.6-3.36h-25.08v68.4h25.08
					c4.56,0,8.76-1.12,12.6-3.36c3.84-2.24,6.88-5.28,9.12-9.12c2.24-3.84,3.37-8.04,3.37-12.6v-18.24
					C636.34,900.57,635.22,896.37,632.97,892.53z M622.66,923.37c0,3.12-1.12,5.8-3.37,8.04c-2.24,2.24-4.92,3.36-8.04,3.36h-11.4
					v-41.04h11.4c3.11,0,5.79,1.12,8.04,3.36c2.24,2.24,3.37,4.92,3.37,8.04V923.37z"/>
				<polygon class="st-white-text" points="670.54,893.73 670.54,934.77 684.22,934.77 684.22,948.45 643.18,948.45 643.18,934.77 
					656.86,934.77 656.86,893.73 643.18,893.73 643.18,880.05 684.22,880.05 684.22,893.73 				"/>
				<path class="st-white-text" d="M724.13,880.05h-13.68l-22.8,68.4h13.68l6.04-18.24h19.84l6.04,18.24h13.68L724.13,880.05z M711.93,916.53
					l5.36-15.96l5.36,15.96H711.93z"/>
				<path class="st-white-text" d="M830.15,880.05h-13.68l-22.8,68.4h13.68l6.04-18.24h19.84l6.04,18.24h13.68L830.15,880.05z M817.96,916.53
					l5.36-15.96l5.36,15.96H817.96z"/>
			</g>
			<polygon class="st-white-text" points="800.51,880.05 800.51,893.73 768.59,893.73 768.59,907.41 791.39,907.41 791.39,921.09 
				768.59,921.09 768.59,948.45 754.91,948.45 754.91,880.05 			"/>
		</g>
	</g>
</g>
</svg>
